<?xml version="1.0" standalone="no"?>
<!DOCTYPE svg PUBLIC "-//W3C//DTD SVG 20010904//EN"
 "http://www.w3.org/TR/2001/REC-SVG-20010904/DTD/svg10.dtd">
<svg version="1.0" xmlns="http://www.w3.org/2000/svg"
 width="1000.000000pt" height="1000.000000pt" viewBox="0 0 1000.000000 1000.000000"
 preserveAspectRatio="xMidYMid meet">

<g transform="translate(0.000000,1000.000000) scale(0.100000,-0.100000)"
fill="#000000" stroke="none">
<path d="M6055 7638 c-154 -39 -282 -72 -284 -74 -2 -2 -9 -32 -15 -67 l-12
-65 45 -6 c25 -3 106 -11 179 -17 72 -7 132 -15 132 -19 0 -16 -70 -367 -214
-1072 -85 -414 -159 -787 -166 -830 -32 -213 -2 -325 103 -381 60 -32 217 -31
297 2 87 36 176 106 247 195 57 72 143 203 143 218 0 6 -93 68 -103 68 -3 0
-22 -24 -43 -52 -58 -80 -154 -178 -196 -199 -50 -25 -108 -25 -136 1 -29 28
-36 59 -27 133 3 34 103 540 221 1125 118 585 214 1068 214 1073 0 11 -42 29
-80 34 -14 2 -151 -28 -305 -67z"/>
<path d="M1966 7453 c-10 -34 -28 -154 -24 -158 2 -3 74 -10 159 -16 85 -6
155 -12 156 -13 2 -2 -189 -1060 -340 -1886 l-12 -65 -150 -9 c-83 -4 -151 -9
-152 -10 -3 -3 -33 -157 -33 -168 0 -5 222 -8 494 -8 462 0 495 1 500 18 7 23
26 132 26 148 0 8 -43 13 -142 18 -79 4 -160 9 -181 12 -36 6 -37 7 -32 37 38
221 146 827 150 845 l5 22 250 0 250 0 0 -170 0 -170 84 0 c84 0 84 0 90 28 3
15 35 194 71 397 36 204 68 383 71 398 l6 28 -88 -3 -87 -3 -58 -160 -57 -160
-250 -3 c-235 -2 -250 -1 -246 15 6 28 154 839 154 847 0 3 176 6 390 6 l390
0 0 -215 0 -215 98 0 98 0 50 308 c28 169 49 310 47 315 -2 4 -382 7 -843 7
-790 0 -839 -1 -844 -17z"/>
<path d="M5099 6859 l-71 -79 -46 39 c-26 21 -65 44 -86 51 -56 18 -216 7
-289 -19 -421 -150 -827 -662 -911 -1150 -51 -301 14 -508 186 -587 57 -26 73
-29 168 -28 124 0 176 17 297 96 83 54 231 196 302 291 24 32 46 55 48 53 3
-3 0 -28 -6 -56 -14 -65 -14 -203 0 -253 26 -96 115 -144 252 -134 118 8 204
54 323 172 77 76 215 259 203 269 -27 21 -100 66 -106 66 -4 0 -24 -24 -43
-52 -124 -183 -276 -267 -345 -192 -45 49 -51 16 160 933 80 349 142 638 138
642 -5 3 -29 9 -56 12 l-47 5 -71 -79z m-270 -212 c36 -12 69 -29 74 -38 7
-11 -20 -148 -91 -463 -115 -507 -96 -461 -247 -605 -160 -151 -269 -213 -376
-213 -133 0 -189 81 -197 284 -5 144 9 250 53 385 66 199 151 339 295 483 172
173 323 224 489 167z"/>
<path d="M8082 6859 l-74 -79 -45 39 c-62 55 -97 65 -217 58 -108 -6 -168 -23
-276 -77 -251 -126 -507 -401 -658 -705 -93 -187 -137 -344 -148 -525 -15
-232 49 -381 192 -451 156 -77 345 -39 534 106 64 49 203 193 251 260 18 25
34 43 37 41 2 -3 -2 -36 -8 -74 -7 -38 -11 -105 -8 -149 6 -101 34 -157 98
-193 39 -22 57 -25 141 -25 90 0 99 2 170 37 127 64 235 168 334 322 52 81 52
80 -3 115 -27 17 -51 31 -55 31 -3 0 -31 -33 -61 -72 -102 -136 -184 -198
-261 -198 -77 0 -106 58 -87 167 6 32 81 366 167 742 86 376 153 687 148 691
-4 4 -28 10 -53 13 l-45 6 -73 -80z m-248 -217 c25 -12 49 -29 53 -38 9 -23
-185 -882 -208 -920 -28 -46 -225 -233 -293 -278 -156 -104 -296 -106 -363 -6
-39 56 -48 106 -48 260 1 151 8 201 51 335 103 321 350 609 571 665 59 15 184
5 237 -18z"/>
<path d="M6665 5016 c-43 -19 -112 -97 -124 -142 -40 -145 41 -264 180 -264
131 0 229 113 216 251 -6 70 -40 122 -98 151 -40 21 -131 23 -174 4z"/>
<path d="M7634 5011 c-71 -32 -124 -122 -124 -210 0 -118 73 -191 190 -191
122 0 214 99 215 231 0 55 -4 72 -28 107 -51 78 -161 105 -253 63z"/>
<path d="M3045 4823 c-121 -17 -281 -85 -376 -159 -74 -59 -151 -159 -184
-241 -36 -90 -52 -224 -37 -317 33 -211 153 -368 457 -600 243 -185 339 -304
366 -451 28 -152 -39 -317 -159 -394 -137 -87 -358 -110 -589 -61 -83 18 -80
12 -93 225 -6 105 -13 200 -16 213 -4 21 -9 22 -109 22 -93 0 -105 -2 -105
-17 0 -10 -14 -128 -30 -262 -19 -162 -26 -249 -19 -257 15 -18 116 -61 213
-88 179 -52 401 -68 578 -41 198 30 324 90 448 215 134 133 183 254 184 450 2
253 -97 399 -474 698 -192 153 -278 240 -321 328 -30 61 -34 79 -37 164 -3 79
0 105 19 154 43 116 147 191 302 221 126 24 287 18 393 -16 l31 -10 7 -117 c4
-64 9 -159 13 -210 l6 -93 106 3 106 3 32 220 c43 301 46 276 -29 313 -153 75
-333 113 -527 111 -69 -1 -139 -4 -156 -6z"/>
<path d="M4298 4102 l-287 -85 -11 -49 c-19 -92 -30 -85 150 -90 87 -2 162 -7
166 -10 3 -4 -37 -197 -90 -430 -53 -233 -107 -477 -121 -543 -57 -274 -20
-410 129 -476 104 -45 251 -34 383 31 133 64 248 159 404 332 44 48 79 86 79
84 0 -3 -6 -35 -14 -73 -45 -220 -22 -317 88 -376 34 -18 58 -22 137 -22 94 0
99 2 185 44 73 36 104 60 174 131 77 78 208 246 199 254 -2 2 -28 18 -58 37
l-54 33 -26 -34 c-117 -155 -195 -218 -276 -228 -37 -4 -47 -1 -71 23 -26 26
-27 30 -21 103 4 56 234 1174 284 1379 4 18 -2 25 -34 38 -36 16 -44 15 -143
-6 -58 -12 -110 -27 -116 -33 -6 -6 -23 -76 -38 -156 -25 -133 -160 -790 -191
-921 -14 -60 -39 -89 -195 -220 -162 -135 -275 -192 -380 -192 -143 0 -179 86
-135 321 15 77 258 1131 271 1174 4 13 -5 21 -32 33 -20 8 -44 14 -53 14 -9
-1 -145 -40 -303 -87z"/>
<path d="M6370 4101 l-285 -88 -12 -64 c-6 -35 -9 -67 -6 -71 2 -5 83 -8 179
-8 96 0 174 -2 174 -5 0 -22 -247 -1300 -271 -1405 -69 -295 -152 -466 -298
-610 -46 -45 -90 -77 -143 -103 -43 -21 -78 -43 -78 -51 0 -28 33 -106 44
-106 21 0 118 36 174 64 137 69 267 179 363 305 66 87 152 263 184 378 15 50
102 480 194 955 l168 863 -31 17 c-17 9 -40 17 -51 17 -11 0 -148 -40 -305
-88z"/>
<path d="M7350 4105 c-151 -46 -282 -88 -290 -93 -14 -9 -42 -127 -32 -137 3
-3 81 -5 174 -5 110 0 168 -4 168 -10 0 -6 -52 -250 -116 -543 -150 -691 -155
-759 -60 -853 68 -69 172 -90 291 -59 115 30 228 110 319 224 44 56 115 157
139 198 4 6 -7 19 -26 31 -19 11 -45 27 -59 36 -24 16 -25 16 -71 -52 -134
-197 -287 -268 -340 -159 -24 49 -26 42 138 820 74 351 135 643 135 648 0 12
-55 39 -77 38 -10 0 -142 -38 -293 -84z"/>
</g>
</svg>
